<svg width="60" height="60" viewBox="0 0 60 60" fill="none" xmlns="http://www.w3.org/2000/svg">
<path opacity="0.1" d="M30 0C20.7202 0 14.2871 2.27743 11.0851 3.75823C9.48453 4.49844 8.12195 5.62805 6.875 6.875C5.62805 8.12195 4.49844 9.48453 3.75823 11.0851C2.27743 14.2871 0 20.7202 0 30C0 39.2798 2.27743 45.7129 3.75823 48.9149C4.49844 50.5155 5.62805 51.878 6.875 53.125C8.12195 54.372 9.48453 55.5016 11.0851 56.2418C14.2871 57.7226 20.7202 60 30 60C39.2798 60 45.7129 57.7226 48.9149 56.2418C50.5155 55.5016 51.878 54.372 53.125 53.125C54.372 51.878 55.5016 50.5155 56.2418 48.9149C57.7226 45.7129 60 39.2798 60 30C60 20.7202 57.7226 14.2871 56.2418 11.0851C55.5016 9.48453 54.372 8.12195 53.125 6.875C51.878 5.62805 50.5155 4.49844 48.9149 3.75823C45.7129 2.27743 39.2798 0 30 0Z" fill="#3670BD"/>
</svg>
