<svg width="56" height="56" viewBox="0 0 56 56" fill="none" xmlns="http://www.w3.org/2000/svg">
<path opacity="0.3" d="M28 1C19.6481 1 13.8584 3.04969 10.9766 4.38241C9.53608 5.04859 8.30976 6.06524 7.1875 7.1875C6.06524 8.30976 5.04859 9.53608 4.38241 10.9766C3.04969 13.8584 1 19.6481 1 28C1 36.3519 3.04969 42.1416 4.38241 45.0234C5.04859 46.4639 6.06524 47.6902 7.1875 48.8125C8.30976 49.9348 9.53608 50.9514 10.9766 51.6176C13.8584 52.9503 19.6481 55 28 55C36.3519 55 42.1416 52.9503 45.0234 51.6176C46.4639 50.9514 47.6902 49.9348 48.8125 48.8125C49.9348 47.6902 50.9514 46.4639 51.6176 45.0234C52.9503 42.1416 55 36.3519 55 28C55 19.6481 52.9503 13.8584 51.6176 10.9766C50.9514 9.53608 49.9348 8.30975 48.8125 7.1875C47.6902 6.06524 46.4639 5.04859 45.0234 4.38241C42.1416 3.04969 36.3519 1 28 1Z" stroke="white" stroke-width="2"/>
</svg>
