<svg width="19" height="17" viewBox="0 0 19 17" fill="none" xmlns="http://www.w3.org/2000/svg">
<path d="M17.5034 2.29792C16.5699 1.35264 15.2827 0.832031 13.8789 0.832031C11.9143 0.832031 10.4003 1.77776 9.5 3.5674C8.59973 1.77776 7.0857 0.832031 5.12109 0.832031C3.71728 0.832031 2.43011 1.35264 1.49662 2.29796C0.517527 3.28949 0 4.64676 0 6.22305C0 8.11381 1.20145 10.194 3.57096 12.4057C5.71937 14.4111 8.07392 15.8185 8.52413 16.0802C8.71172 16.1893 9.12924 16.4301 9.12924 16.4301L9.50011 16.644L9.87094 16.4299C9.87094 16.4299 10.2881 16.1892 10.4756 16.0802C10.9258 15.8184 13.2805 14.4109 15.4289 12.4057C17.7985 10.194 19 8.11381 19 6.22305C19 4.64676 18.4825 3.28949 17.5034 2.29792ZM14.416 11.3206C12.384 13.2172 10.1555 14.5492 9.72945 14.797C9.66944 14.8319 9.58576 14.8803 9.49989 14.93C9.41398 14.8804 9.33022 14.8319 9.27026 14.797C8.8442 14.5492 6.61593 13.2174 4.58382 11.3206C2.55617 9.42793 1.48438 7.66524 1.48438 6.22305C1.48438 3.92287 2.97985 2.31641 5.12109 2.31641C6.51403 2.31641 7.50734 2.93335 8.15768 4.20253C8.67959 5.22084 8.7587 6.2766 8.75945 6.28714L8.78794 6.28521H10.2406C10.2413 6.27504 10.3205 5.24174 10.824 4.23867C11.4641 2.96315 12.492 2.31641 13.8789 2.31641C16.0202 2.31641 17.5156 3.92287 17.5156 6.22305C17.5156 7.66524 16.4438 9.42793 14.416 11.3206Z" fill="#EB5757"/>
<path d="M14.416 11.3206C12.384 13.2172 10.1555 14.5492 9.72945 14.797L9.49989 14.93C9.41398 14.8804 9.33022 14.8319 9.27026 14.797C8.8442 14.5492 6.61593 13.2174 4.58382 11.3206C2.55617 9.42793 1.48438 7.66524 1.48438 6.22305C1.48438 3.92287 2.97985 2.31641 5.12109 2.31641C6.51403 2.31641 7.50734 2.93335 8.15768 4.20253C8.67959 5.22084 8.7587 6.2766 8.75945 6.28714L8.78794 6.28521H10.2406C10.2413 6.27504 10.3205 5.24174 10.824 4.23867C11.4641 2.96315 12.492 2.31641 13.8789 2.31641C16.0202 2.31641 17.5156 3.92287 17.5156 6.22305C17.5156 7.66524 16.4438 9.42793 14.416 11.3206Z" fill="#EB5757"/>
</svg>
