<svg width="20" height="20" viewBox="0 0 20 20" fill="none" xmlns="http://www.w3.org/2000/svg">
<g opacity="0.5">
<path d="M18.4246 3.22078C17.442 2.22574 16.0871 1.67773 14.6094 1.67773C12.5414 1.67773 10.9477 2.67324 10 4.55707C9.05234 2.67324 7.45863 1.67773 5.39062 1.67773C3.91293 1.67773 2.55801 2.22574 1.57539 3.22082C0.544766 4.26453 0 5.69324 0 7.3525C0 9.34277 1.26469 11.5324 3.75891 13.8606C6.02039 15.9715 8.49887 17.4529 8.97277 17.7285C9.17023 17.8433 9.60973 18.0967 9.60973 18.0967L10.0001 18.3219L10.3905 18.0966C10.3905 18.0966 10.8296 17.8432 11.027 17.7284C11.5009 17.4528 13.9795 15.9713 16.2409 13.8605C18.7352 11.5324 20 9.34277 20 7.3525C20 5.69324 19.4552 4.26453 18.4246 3.22078ZM15.1748 12.7183C13.0357 14.7148 10.69 16.1169 10.2415 16.3777C10.1784 16.4144 10.0903 16.4654 9.99988 16.5177C9.90945 16.4655 9.82129 16.4144 9.75816 16.3777C9.30969 16.1169 6.96414 14.7149 4.82508 12.7183C2.6907 10.726 1.5625 8.87058 1.5625 7.3525C1.5625 4.93125 3.13668 3.24023 5.39062 3.24023C6.85687 3.24023 7.90246 3.88965 8.58703 5.22562C9.13641 6.29754 9.21969 7.40886 9.22047 7.41996L9.25047 7.41793H10.7796C10.7803 7.40722 10.8637 6.31953 11.3936 5.26367C12.0675 3.92101 13.1495 3.24023 14.6094 3.24023C16.8633 3.24023 18.4375 4.93125 18.4375 7.3525C18.4375 8.87058 17.3093 10.726 15.1748 12.7183Z" fill="#072F64"/>
</g>
</svg>
