<svg width="15" height="15" viewBox="0 0 15 15" fill="none" xmlns="http://www.w3.org/2000/svg">
<g opacity="0.5">
<g clip-path="url(#clip0)">
<path d="M12.1929 2.66957L8.97813 0.813542C8.79875 0.709976 8.56955 0.77139 8.46596 0.950779L2.36756 11.5135C2.31784 11.5997 2.30428 11.7019 2.33006 11.7981L3.00889 14.3344C3.03458 14.4302 3.09752 14.5123 3.18363 14.562C3.26974 14.6117 3.37229 14.6252 3.46815 14.5995L6.00406 13.9193C6.10026 13.8935 6.182 13.8306 6.23171 13.7445L12.3301 3.18174C12.4337 3.00236 12.3723 2.77316 12.1929 2.66957ZM5.65959 13.2358L3.63571 13.7789L3.09408 11.7546L7.4693 4.17651L10.0348 5.65771C10.0348 5.65772 5.65959 13.2358 5.65959 13.2358ZM10.4098 5.00827L7.84426 3.52709L8.92772 1.6505L11.4932 3.1317L10.4098 5.00827Z" fill="white"/>
</g>
</g>
<defs>
<clipPath id="clip0">
<rect y="3.10547" width="12" height="12" transform="rotate(-15 0 3.10547)" fill="white"/>
</clipPath>
</defs>
</svg>
