<svg width="118" height="48" viewBox="0 0 118 48" fill="none" xmlns="http://www.w3.org/2000/svg">
<line x1="13.5" y1="30" x2="13.5" y2="35" stroke="white" stroke-width="3"/>
<path d="M24.6394 36.5L2.34505 36.5L13.4046 12.5543L24.6394 36.5Z" stroke="white" stroke-width="3"/>
<path d="M31.44 23.48C31.44 21.48 31.68 19.72 32.24 18.2C32.76 16.68 33.48 15.36 34.4 14.28C35.36 13.24 36.44 12.44 37.72 11.88C39 11.32 40.36 11.04 41.84 11.04C43.36 11.04 44.72 11.32 46 11.88C47.28 12.44 48.36 13.24 49.28 14.28C50.24 15.36 50.96 16.68 51.48 18.2C52.04 19.72 52.28 21.48 52.28 23.48C52.28 25.48 52.04 27.28 51.48 28.8C50.96 30.36 50.24 31.68 49.28 32.72C48.36 33.76 47.28 34.56 46 35.12C44.72 35.68 43.36 35.96 41.84 35.96C40.36 35.96 39 35.68 37.72 35.12C36.44 34.56 35.36 33.76 34.4 32.72C33.48 31.68 32.76 30.36 32.24 28.8C31.68 27.28 31.44 25.48 31.44 23.48ZM55.16 23.48C55.16 21.28 54.84 19.24 54.24 17.4C53.6 15.56 52.72 14 51.6 12.68C50.44 11.36 49.04 10.32 47.4 9.6C45.76 8.88 43.92 8.48 41.88 8.48C39.8 8.48 37.96 8.88 36.32 9.6C34.68 10.32 33.28 11.36 32.16 12.68C31 14 30.12 15.56 29.52 17.4C28.88 19.24 28.6 21.28 28.6 23.48C28.6 25.72 28.88 27.72 29.52 29.56C30.12 31.4 31 33 32.16 34.32C33.28 35.68 34.68 36.72 36.32 37.44C37.96 38.16 39.8 38.52 41.88 38.52C43.92 38.52 45.76 38.16 47.4 37.44C49.04 36.72 50.44 35.68 51.6 34.32C52.72 33 53.6 31.4 54.24 29.56C54.84 27.72 55.16 25.72 55.16 23.48ZM73.0856 38H75.8056L85.6456 11.56V38H88.3256V9H84.0456L74.4856 34.96L64.8856 9H60.5656V38H63.2456V11.56L73.0856 38ZM103.317 9L92.3172 38H95.1972L97.9172 30.72H111.717L114.477 38H117.397L106.357 9H103.317ZM98.8372 28.24L104.757 12.32L110.757 28.24H98.8372Z" fill="white"/>
</svg>
