<svg width="24" height="29" viewBox="0 0 24 29" fill="none" xmlns="http://www.w3.org/2000/svg">
<g opacity="0.5" filter="url(#filter0_d)">
<path d="M12 14C13.66 14 14.99 12.66 14.99 11L15 5C15 3.34 13.66 2 12 2C10.34 2 9 3.34 9 5V11C9 12.66 10.34 14 12 14ZM10.8 4.9C10.8 4.24 11.34 3.7 12 3.7C12.66 3.7 13.2 4.24 13.2 4.9L13.19 11.1C13.19 11.76 12.66 12.3 12 12.3C11.34 12.3 10.8 11.76 10.8 11.1V4.9ZM17.3 11C17.3 14 14.76 16.1 12 16.1C9.24 16.1 6.7 14 6.7 11H5C5 14.41 7.72 17.23 11 17.72V21H13V17.72C16.28 17.24 19 14.42 19 11H17.3Z" fill="white"/>
</g>
<defs>
<filter id="filter0_d" x="-4" y="0" width="32" height="32" filterUnits="userSpaceOnUse" color-interpolation-filters="sRGB">
<feFlood flood-opacity="0" result="BackgroundImageFix"/>
<feColorMatrix in="SourceAlpha" type="matrix" values="0 0 0 0 0 0 0 0 0 0 0 0 0 0 0 0 0 0 127 0"/>
<feOffset dy="4"/>
<feGaussianBlur stdDeviation="2"/>
<feColorMatrix type="matrix" values="0 0 0 0 0 0 0 0 0 0 0 0 0 0 0 0 0 0 0.25 0"/>
<feBlend mode="normal" in2="BackgroundImageFix" result="effect1_dropShadow"/>
<feBlend mode="normal" in="SourceGraphic" in2="effect1_dropShadow" result="shape"/>
</filter>
</defs>
</svg>
