<svg width="42" height="42" viewBox="0 0 42 42" fill="none" xmlns="http://www.w3.org/2000/svg">
<path d="M21 0C14.5041 0 10.001 1.5942 7.75958 2.63076C6.63917 3.14891 5.68537 3.93963 4.8125 4.8125C3.93963 5.68537 3.14891 6.63917 2.63076 7.75958C1.5942 10.001 0 14.5041 0 21C0 27.4959 1.5942 31.999 2.63076 34.2404C3.14891 35.3608 3.93963 36.3146 4.8125 37.1875C5.68537 38.0604 6.63917 38.8511 7.75958 39.3692C10.001 40.4058 14.5041 42 21 42C27.4959 42 31.999 40.4058 34.2404 39.3692C35.3608 38.8511 36.3146 38.0604 37.1875 37.1875C38.0604 36.3146 38.8511 35.3608 39.3692 34.2404C40.4058 31.999 42 27.4959 42 21C42 14.5041 40.4058 10.001 39.3692 7.75958C38.8511 6.63917 38.0604 5.68537 37.1875 4.8125C36.3146 3.93963 35.3608 3.14891 34.2404 2.63076C31.999 1.5942 27.4959 0 21 0Z" fill="#072F64"/>
</svg>
