<svg width="40" height="40" viewBox="0 0 40 40" fill="none" xmlns="http://www.w3.org/2000/svg">
<g opacity="0.3">
<path d="M20 3.33301C10.8 3.33301 3.33337 10.7997 3.33337 19.9997C3.33337 29.1997 10.8 36.6663 20 36.6663C29.2 36.6663 36.6667 29.1997 36.6667 19.9997C36.6667 10.7997 29.2 3.33301 20 3.33301ZM18.3334 33.2163C11.7667 32.3997 6.66671 26.7997 6.66671 19.9997C6.66671 13.1997 11.75 7.59968 18.3334 6.78301V33.2163ZM21.6667 6.78301C23.3834 6.99968 25 7.53301 26.45 8.33301H21.6667V6.78301ZM21.6667 11.6663H30.4C30.8167 12.183 31.2 12.7497 31.5334 13.333H21.6667V11.6663ZM21.6667 16.6663H32.9C33.0334 17.2163 33.15 17.7663 33.2167 18.333H21.6667V16.6663ZM21.6667 33.2163V31.6663H26.45C25 32.4663 23.3834 32.9997 21.6667 33.2163ZM30.4 28.333H21.6667V26.6663H31.5334C31.2 27.2497 30.8167 27.8163 30.4 28.333ZM32.9 23.333H21.6667V21.6663H33.2167C33.15 22.233 33.0334 22.783 32.9 23.333Z" fill="white"/>
</g>
</svg>
