<svg width="64" height="64" viewBox="0 0 64 64" fill="none" xmlns="http://www.w3.org/2000/svg">
<path d="M12.2439 4.91642C15.5499 3.38752 22.269 1 32 1C41.731 1 48.4501 3.38752 51.7561 4.91642C53.3112 5.63557 54.6679 6.74882 55.9596 8.04044C57.2512 9.33206 58.3644 10.6888 59.0836 12.2439C60.6125 15.5499 63 22.269 63 32C63 41.731 60.6125 48.4501 59.0836 51.7561C58.3644 53.3112 57.2512 54.6679 55.9596 55.9596C54.6679 57.2512 53.3112 58.3644 51.7561 59.0836C48.4501 60.6125 41.731 63 32 63C22.269 63 15.5499 60.6125 12.2439 59.0836C10.6888 58.3644 9.33206 57.2512 8.04044 55.9596C6.74882 54.6679 5.63558 53.3112 4.91642 51.7561C3.38752 48.4501 1 41.731 1 32C1 22.269 3.38752 15.5499 4.91642 12.2439C5.63558 10.6888 6.74882 9.33206 8.04044 8.04044C9.33206 6.74882 10.6888 5.63558 12.2439 4.91642Z" stroke="#EB5757" stroke-width="2"/>
</svg>
