<svg width="64" height="64" viewBox="0 0 64 64" fill="none" xmlns="http://www.w3.org/2000/svg">
<path d="M32 0C22.1015 0 15.2396 2.42926 11.8241 4.00878C10.1168 4.79833 8.66342 6.00325 7.33333 7.33333C6.00325 8.66341 4.79833 10.1168 4.00878 11.8241C2.42926 15.2396 0 22.1015 0 32C0 41.8985 2.42926 48.7604 4.00878 52.1759C4.79833 53.8832 6.00325 55.3366 7.33333 56.6667C8.66342 57.9967 10.1168 59.2017 11.8241 59.9912C15.2396 61.5707 22.1015 64 32 64C41.8985 64 48.7604 61.5707 52.1759 59.9912C53.8832 59.2017 55.3366 57.9967 56.6667 56.6667C57.9967 55.3366 59.2017 53.8832 59.9912 52.1759C61.5707 48.7604 64 41.8985 64 32C64 22.1015 61.5707 15.2396 59.9912 11.8241C59.2017 10.1168 57.9967 8.66341 56.6667 7.33333C55.3366 6.00325 53.8832 4.79833 52.1759 4.00878C48.7604 2.42926 41.8985 0 32 0Z" fill="#1A3341"/>
</svg>
