<svg width="366" height="72" viewBox="0 0 366 72" fill="none" xmlns="http://www.w3.org/2000/svg">
<path d="M6.08 10.6V57H23.36C25.6 57 27.712 56.808 29.696 56.296C31.616 55.784 33.344 55.016 34.816 53.928C36.224 52.904 37.376 51.496 38.208 49.768C39.04 48.104 39.488 46.056 39.488 43.624C39.488 40.872 38.848 38.568 37.568 36.648C36.288 34.728 34.304 33.384 31.552 32.552C33.28 31.784 34.688 30.504 35.84 28.712C36.992 26.92 37.568 24.808 37.568 22.312C37.568 20.008 37.12 18.088 36.288 16.552C35.392 15.016 34.24 13.864 32.832 12.968C31.424 12.072 29.76 11.496 27.84 11.112C25.92 10.792 23.936 10.6 21.888 10.6H6.08ZM10.368 53.096V34.728H23.232C27.2 34.728 30.144 35.432 32.064 36.84C33.984 38.248 34.944 40.552 34.944 43.688C34.944 46.76 33.984 49.064 32.128 50.664C30.208 52.328 27.392 53.096 23.616 53.096H10.368ZM10.368 31.016V14.504H22.912C25.984 14.504 28.48 15.144 30.336 16.424C32.128 17.704 33.088 19.752 33.088 22.568C33.088 24.168 32.832 25.512 32.32 26.6C31.808 27.688 31.168 28.584 30.272 29.224C29.376 29.864 28.288 30.376 27.008 30.632C25.728 30.888 24.256 31.016 22.72 31.016H10.368ZM85.5035 42.088H81.0235C80.6395 43.624 80.1275 45.032 79.3595 46.44C78.5915 47.848 77.5675 49.128 76.2875 50.216C75.0075 51.304 73.5355 52.136 71.8075 52.776C70.0795 53.416 68.0955 53.736 65.9195 53.736C63.4875 53.736 61.3115 53.288 59.3275 52.392C57.3435 51.496 55.6795 50.152 54.2715 48.424C52.8635 46.696 51.7115 44.584 50.9435 42.088C50.1755 39.656 49.7915 36.84 49.7915 33.768C49.7915 30.568 50.1755 27.752 51.0075 25.256C51.8395 22.824 52.9915 20.712 54.3995 19.048C55.8075 17.384 57.5355 16.104 59.5195 15.208C61.4395 14.312 63.6155 13.864 65.9195 13.864C67.6475 13.864 69.3115 14.12 70.9115 14.632C72.5115 15.144 73.9835 15.848 75.2635 16.808C76.5435 17.768 77.6955 18.984 78.6555 20.456C79.6155 21.928 80.3195 23.592 80.8315 25.512H85.3115C84.7995 23.208 83.9675 21.032 82.9435 19.112C81.8555 17.192 80.5115 15.528 78.8475 14.184C77.1835 12.776 75.3275 11.752 73.1515 10.984C70.9755 10.216 68.6075 9.832 65.9835 9.832C62.6555 9.832 59.7115 10.408 57.1515 11.56C54.5915 12.712 52.4155 14.376 50.6235 16.488C48.8315 18.6 47.4875 21.16 46.5915 24.104C45.6955 27.048 45.1835 30.248 45.1835 33.832C45.1835 37.288 45.6315 40.552 46.5275 43.496C47.4235 46.44 48.7675 48.936 50.4955 51.112C52.2875 53.224 54.3995 54.888 56.9595 56.104C59.5195 57.256 62.4635 57.896 65.7915 57.896C68.5435 57.896 71.0395 57.512 73.2155 56.744C75.3915 55.976 77.3115 54.888 78.9755 53.48C80.6395 52.072 82.0475 50.408 83.0715 48.488C84.1595 46.568 84.9915 44.392 85.5035 42.088ZM93.5175 10.6V57H123.278V53.032H97.8055V34.984H121.742V30.952H97.8055V14.568H123.278V10.6H93.5175ZM104.014 0.743996H99.7255V7.08H104.014V0.743996ZM116.558 0.743996H112.27V7.08H116.558V0.743996ZM128.548 41.512H168.612V37.736H128.548V41.512Z" fill="white"/>
<path d="M228.104 33.768C228.104 30.568 228.488 27.752 229.384 25.32C230.216 22.888 231.368 20.776 232.84 19.048C234.376 17.384 236.104 16.104 238.152 15.208C240.2 14.312 242.376 13.864 244.744 13.864C247.176 13.864 249.352 14.312 251.4 15.208C253.448 16.104 255.176 17.384 256.648 19.048C258.184 20.776 259.336 22.888 260.168 25.32C261.064 27.752 261.448 30.568 261.448 33.768C261.448 36.968 261.064 39.848 260.168 42.28C259.336 44.776 258.184 46.888 256.648 48.552C255.176 50.216 253.448 51.496 251.4 52.392C249.352 53.288 247.176 53.736 244.744 53.736C242.376 53.736 240.2 53.288 238.152 52.392C236.104 51.496 234.376 50.216 232.84 48.552C231.368 46.888 230.216 44.776 229.384 42.28C228.488 39.848 228.104 36.968 228.104 33.768ZM266.056 33.768C266.056 30.248 265.544 26.984 264.584 24.04C263.56 21.096 262.152 18.6 260.36 16.488C258.504 14.376 256.264 12.712 253.64 11.56C251.016 10.408 248.072 9.768 244.808 9.768C241.48 9.768 238.536 10.408 235.912 11.56C233.288 12.712 231.048 14.376 229.256 16.488C227.4 18.6 225.992 21.096 225.032 24.04C224.008 26.984 223.56 30.248 223.56 33.768C223.56 37.352 224.008 40.552 225.032 43.496C225.992 46.44 227.4 49 229.256 51.112C231.048 53.288 233.288 54.952 235.912 56.104C238.536 57.256 241.48 57.832 244.808 57.832C248.072 57.832 251.016 57.256 253.64 56.104C256.264 54.952 258.504 53.288 260.36 51.112C262.152 49 263.56 46.44 264.584 43.496C265.544 40.552 266.056 37.352 266.056 33.768ZM294.737 57H299.089L314.833 14.696V57H319.121V10.6H312.273L296.977 52.136L281.617 10.6H274.705V57H278.993V14.696L294.737 57ZM343.108 10.6L325.508 57H330.116L334.468 45.352H356.548L360.964 57H365.636L347.972 10.6H343.108ZM335.94 41.384L345.412 15.912L355.012 41.384H335.94Z" fill="white"/>
<path d="M218.764 55L177.236 55L198 13.4721L218.764 55Z" stroke="white" stroke-width="4"/>
<line x1="198" y1="45" x2="198" y2="53" stroke="white" stroke-width="6"/>
</svg>
